<?xml version="1.0" standalone="no"?><!DOCTYPE svg PUBLIC "-//W3C//DTD SVG 1.1//EN" "http://www.w3.org/Graphics/SVG/1.1/DTD/svg11.dtd"><svg t="1687187387181" class="icon" viewBox="0 0 1024 1024" version="1.1" xmlns="http://www.w3.org/2000/svg" p-id="5236" width="64" height="64" xmlns:xlink="http://www.w3.org/1999/xlink"><path d="M733.7 649.3c-219.3 0-396.9-181.2-396.9-404.8 0-41 6.1-80.6 17.2-117.8C217 190.5 121.8 331.3 121.8 495c0 223.6 177.6 404.8 396.9 404.8 179 0 330.3-120.9 379.7-287-50.4 23.3-106.1 36.5-164.7 36.5z" fill="#FFD46C" p-id="5237"></path><path d="M551.8 864c-219.3 0-396.9-181.2-396.9-404.8 0-102.9 37.9-197 100-268.3-82.8 74.1-135.3 182.8-135.3 304 0 223.6 177.6 404.8 396.9 404.8 117.9 0 224-52.5 296.4-135.8C743.3 826.1 652 864 551.8 864z" fill="#F49D18" p-id="5238"></path><path d="M518.4 912C311.6 912 137 754.1 112.6 545.1c-0.2-2.6 0.5-5 1.9-7.2 1.6-1.9 3.8-3.4 6.4-3.6l5.2-0.7h1.2c4.7 0 8.7 3.6 9.4 8.4C159.8 738.8 324 887.3 518.8 887.3c159.5 0 303.5-101.5 359.7-252.9-46.1 18-94.8 26.9-144.7 26.9-225.4 0-408.9-187.2-408.9-417 0-31.9 3.5-63.6 10.6-94.5C227.3 210 151.3 323.5 136.7 447.6c-0.5 4.8-4.7 8.4-9.4 8.4h-1.2l-5.2-0.7c-2.6-0.2-4.7-1.7-6.4-3.6-1.6-1.9-2.4-4.6-1.9-7 8.5-71.3 35.1-139.7 77.2-197.5 41.1-57 96.2-102.6 159.2-131.8l5.4-2.4c1.2-0.5 2.6-1 4-1 2.4 0 4.5 0.7 6.1 2.4 2.8 2.4 3.8 6.5 2.8 10.1l-1.6 5.8c-11.1 37-16.7 75.3-16.7 114.2C349 460.9 521.7 637 733.7 637c55.5 0 109.2-12 159.5-35.5l5.4-2.4c1.2-0.5 2.6-1 4-1 2.4 0 4.5 1 6.1 2.4 2.8 2.4 4 6.5 2.8 10.1l-1.6 5.8c-24.9 83.7-76.7 159.1-145.6 212.1C693 883 608.1 912 518.4 912z" fill="#231815" p-id="5239"></path><path d="M518.4 909.6c-205.6 0-379.2-156.9-403.5-364.7-0.2-1.9 0.2-3.8 1.4-5.3 1.2-1.4 2.8-2.4 4.7-2.6l5.2-0.7h0.9c3.5 0 6.6 2.6 7.1 6.2C157.5 740.7 322.6 890 518.6 890c163.5 0 308.2-103.9 363.7-259.4-47.3 19.2-97.4 28.8-148.7 28.8-224.2 0-406.5-186-406.5-414.6 0-33.6 4-66.9 11.8-99.3-111.8 60-189.6 174.7-204.7 302.1-0.5 3.6-3.5 6.2-7.1 6.2h-0.9l-5.2-0.7c-1.9-0.2-3.5-1.2-4.7-2.6-1.2-1.4-1.6-3.4-1.4-5.3 8.2-71 34.8-138.9 76.7-196.3 40.9-56.6 95.8-101.7 158.3-131l5.4-2.4c0.9-0.5 1.9-0.7 2.8-0.7 1.6 0 3.3 0.7 4.7 1.9 2.1 1.9 2.8 4.8 2.1 7.4l-1.6 5.8c-11.1 37.2-16.7 75.8-16.7 114.9 0 217.6 173.6 395 387.2 395 56 0 109.9-12 160.7-35.5l5.4-2.4c0.9-0.5 1.9-0.7 2.8-0.7 1.6 0 3.3 0.7 4.7 1.7 2.1 1.9 2.8 4.8 2.1 7.4l-1.6 5.8c-24.7 83.3-76.2 158.1-144.7 210.7-71.4 54-155.9 82.8-244.8 82.8z" fill="#231815" p-id="5240"></path><path d="M330.7 423c2.8-3.1 2.8-8.4-0.7-11.5-3.3-3.4-8-3.1-11.3 0 0.2 0.5-29.4 34.8-60.9 41.5-31.3 6-62.3-11.5-62.6-12-3.5-2.2-8.2-0.7-10.8 3.4-1.9 4.1-0.2 9.1 3.5 11.5 0 0 36.7 20.9 73.6 13.4 36.5-7.7 68.7-46.1 69.2-46.3z" fill="#091E33" p-id="5241"></path><path d="M342.9 449.6l-24.7-13c-3.5-1.9-4.7-6.2-3.1-9.6l0.7-1.4c1.9-3.6 6.1-5 9.4-3.1l24.7 13c3.5 1.9 4.7 6.2 3.1 9.6l-0.7 1.4c-1.6 3.6-5.9 5-9.4 3.1zM319.4 470.7l-18.6-20.9c-2.6-2.9-2.4-7.4 0.5-10.1l1.2-1.2c2.8-2.6 7.3-2.4 9.9 0.5l18.6 20.9c2.6 2.9 2.4 7.4-0.5 10.1l-1.2 1.2c-2.9 2.6-7.3 2.4-9.9-0.5zM294.9 487.3L281 462.8c-1.9-3.4-0.7-7.9 2.6-9.8l1.4-1c3.3-1.9 7.8-0.7 9.6 2.6l13.9 24.5c1.9 3.4 0.7 7.9-2.6 9.8l-1.4 1c-3.2 1.9-7.7 0.7-9.6-2.6zM265.7 495l-9.2-26.6c-1.2-3.8 0.7-7.9 4.2-9.1l1.6-0.5c3.8-1.2 7.8 0.7 8.9 4.6l9.2 26.6c1.2 3.8-0.7 7.9-4.2 9.1l-1.6 0.5c-3.7 1.1-7.7-0.8-8.9-4.6zM234.5 498.3V470c0-4.1 3.1-7.2 7.1-7.2h1.6c4 0 7.1 3.1 7.1 7.2v28.3c0 4.1-3.1 7.2-7.1 7.2h-1.6c-4.1 0-7.1-3.1-7.1-7.2zM204.6 493l7.8-27.1c1.2-3.8 4.9-6 8.7-4.8l1.6 0.5c3.8 1.2 5.9 5 4.7 8.9l-7.8 27.1c-1.2 3.8-4.9 6-8.7 4.8l-1.6-0.5c-3.6-1.2-5.7-5-4.7-8.9zM175.2 477.4l16.5-22.8c2.4-3.1 6.8-3.8 9.9-1.4l1.4 1c3.1 2.4 3.8 7 1.4 10.1L187.9 487c-2.4 3.1-6.8 3.8-9.9 1.4l-1.4-1c-3.1-2.3-3.8-6.6-1.4-10z" fill="#091E33" p-id="5242"></path></svg>